M48
; DRILL file {KiCad 9.0.6} date 2025-11-26T15:01:53+0100
; FORMAT={-:-/ absolute / metric / decimal}
; #@! TF.CreationDate,2025-11-26T15:01:53+01:00
; #@! TF.GenerationSoftware,Kicad,Pcbnew,9.0.6
; #@! TF.FileFunction,Plated,1,2,PTH
FMAT,2
METRIC
; #@! TA.AperFunction,Plated,PTH,ComponentDrill
T1C0.200
; #@! TA.AperFunction,Plated,PTH,ViaDrill
T2C0.300
; #@! TA.AperFunction,Plated,PTH,ComponentDrill
T3C0.750
; #@! TA.AperFunction,Plated,PTH,ComponentDrill
T4C0.762
; #@! TA.AperFunction,Plated,PTH,ComponentDrill
T5C0.800
; #@! TA.AperFunction,Plated,PTH,ComponentDrill
T6C1.000
; #@! TA.AperFunction,Plated,PTH,ComponentDrill
T7C3.000
%
G90
G05
T1
X244.84Y-133.38
X244.84Y-134.58
X244.84Y-135.78
X244.84Y-136.98
X245.84Y-133.38
X245.84Y-134.58
X245.84Y-135.78
X245.84Y-136.98
X246.84Y-133.38
X246.84Y-134.58
X246.84Y-135.78
X246.84Y-136.98
T2
X124.0Y-146.25
X124.25Y-150.5
X126.5Y-146.25
X129.75Y-173.75
X130.75Y-127.0
X131.75Y-122.75
X132.25Y-172.75
X133.75Y-120.0
X134.25Y-177.0
X144.0Y-151.75
X144.062Y-150.172
X145.059Y-141.5
X145.859Y-140.0
X146.75Y-153.75
X147.75Y-195.0
X147.883Y-149.928
X148.5Y-193.75
X148.75Y-153.75
X149.0Y-157.0
X149.75Y-137.5
X150.5Y-174.0
X151.0Y-162.25
X151.149Y-138.75
X151.75Y-106.25
X151.75Y-196.75
X152.5Y-127.25
X152.5Y-161.25
X152.75Y-177.25
X153.5Y-125.5
X154.0Y-160.5
X154.25Y-128.5
X154.585Y-176.5
X155.0Y-101.25
X155.25Y-130.25
X155.25Y-137.5
X155.25Y-159.0
X155.25Y-166.25
X155.5Y-123.5
X156.25Y-145.75
X156.5Y-167.5
X157.0Y-109.25
X158.0Y-135.0
X158.623Y-144.974
X159.3Y-125.2
X159.5Y-138.02
X159.5Y-140.404
X160.5Y-135.0
X161.25Y-178.25
X161.306Y-156.944
X161.436Y-150.05
X161.508Y-159.638
X162.25Y-125.5
X163.05Y-135.8
X163.25Y-174.75
X163.5Y-148.75
X163.525Y-125.853
X163.75Y-155.75
X164.579Y-173.25
X164.75Y-160.5
X165.0Y-138.75
X165.0Y-148.75
X165.0Y-155.25
X165.25Y-149.75
X166.25Y-135.75
X166.25Y-145.25
X166.25Y-155.0
X166.25Y-176.75
X167.5Y-138.25
X167.5Y-144.5
X167.5Y-155.0
X167.75Y-172.75
X169.0Y-160.25
X169.5Y-182.778
X169.828Y-160.799
X170.005Y-139.0
X170.25Y-150.5
X171.75Y-182.078
X171.767Y-159.399
X172.5Y-143.75
X174.0Y-141.75
X174.155Y-146.095
X174.5Y-182.078
X175.22Y-158.298
X175.25Y-185.25
X176.75Y-177.5
X177.843Y-168.101
X178.25Y-165.75
X179.0Y-141.0
X179.205Y-165.266
X179.609Y-145.45
X180.43Y-172.975
X181.25Y-172.75
X181.709Y-146.88
X181.75Y-140.0
X182.05Y-178.3
X182.5Y-179.25
X182.75Y-139.0
X188.0Y-204.0
X188.75Y-98.25
X188.75Y-201.75
X190.839Y-98.029
X192.0Y-203.75
X196.0Y-96.0
X197.0Y-161.75
X197.25Y-144.5
X197.25Y-155.5
X198.0Y-148.0
X198.0Y-167.5
X199.5Y-166.0
X201.5Y-96.25
X202.0Y-180.5
X202.75Y-144.5
X202.75Y-148.0
X203.75Y-153.5
X204.953Y-140.3
X205.688Y-139.6
X206.792Y-138.3
X207.707Y-174.25
X208.25Y-136.25
X209.33Y-174.954
X210.0Y-102.25
X210.0Y-123.25
X215.0Y-112.5
X215.0Y-191.0
X220.5Y-152.5
X221.25Y-127.25
X221.5Y-157.35
X222.341Y-160.6
X223.0Y-150.5
X225.25Y-111.25
X225.25Y-121.25
X228.235Y-149.839
X228.5Y-139.0
X230.0Y-148.25
X230.0Y-160.5
X231.0Y-176.0
X231.723Y-155.777
X231.75Y-156.75
X232.25Y-128.0
X234.5Y-144.5
X235.25Y-132.665
X235.75Y-146.5
X236.5Y-163.0
X236.689Y-134.0
X240.25Y-183.5
X240.5Y-121.0
X240.603Y-138.482
X240.75Y-161.5
X241.034Y-135.807
X241.093Y-134.029
X241.177Y-134.875
X241.75Y-145.25
X242.0Y-141.5
X242.75Y-145.0
X242.999Y-168.0
X243.25Y-139.75
X243.25Y-164.5
X243.587Y-172.105
X243.75Y-157.25
X244.1Y-170.597
X244.75Y-143.25
X245.5Y-122.75
X246.75Y-146.5
X248.0Y-164.5
X248.25Y-138.205
X248.5Y-148.5
X248.5Y-152.0
X249.0Y-173.0
X250.002Y-134.896
X250.05Y-137.0
X250.304Y-132.386
X250.5Y-121.5
X250.5Y-147.75
X250.739Y-135.635
X250.75Y-128.25
X251.25Y-164.5
X251.5Y-127.25
X252.506Y-136.314
X253.564Y-159.186
X255.905Y-130.405
X256.0Y-127.25
X256.25Y-156.25
X256.5Y-134.0
X256.75Y-128.25
X258.5Y-174.25
X258.941Y-160.905
X258.941Y-168.482
X259.25Y-152.75
X259.5Y-121.25
X259.691Y-168.809
X264.25Y-169.25
X264.25Y-178.5
X265.25Y-179.75
X265.5Y-170.25
X266.25Y-171.25
X266.25Y-180.53
X267.25Y-172.25
X267.25Y-181.75
X274.5Y-148.25
X279.5Y-153.75
X281.5Y-149.75
X281.5Y-154.0
T3
X129.157Y-148.43
X129.157Y-149.7
X129.157Y-150.97
X135.104Y-173.253
X135.327Y-126.315
X135.739Y-174.353
X135.962Y-125.215
X136.374Y-175.453
X136.597Y-124.115
X152.517Y-191.85
X153.084Y-107.929
X153.617Y-192.485
X154.184Y-107.294
X154.717Y-193.12
X155.284Y-106.659
X181.61Y-142.69
X181.61Y-143.96
X181.61Y-145.23
X181.61Y-148.69
X181.61Y-149.96
X181.61Y-151.23
X181.61Y-154.69
X181.61Y-155.96
X181.61Y-157.23
X190.43Y-198.86
X191.03Y-101.14
X191.7Y-198.86
X192.3Y-101.14
X192.97Y-198.86
X193.57Y-101.14
X276.65Y-149.016
X276.65Y-150.286
X276.65Y-151.556
T4
X233.79Y-157.79
X233.79Y-160.33
X233.79Y-162.87
X233.79Y-165.41
X233.79Y-167.95
X233.79Y-170.49
X233.79Y-173.03
X233.79Y-175.57
X233.79Y-178.11
X233.79Y-180.65
X233.79Y-183.19
X233.79Y-185.73
X233.79Y-188.27
X256.65Y-157.79
X256.65Y-160.33
X256.65Y-162.87
X256.65Y-165.41
X256.65Y-167.95
X256.65Y-170.49
X256.65Y-173.03
X256.65Y-175.57
X256.65Y-178.11
X256.65Y-180.65
X256.65Y-183.19
X256.65Y-185.73
X256.65Y-188.27
T5
X158.21Y-147.69
X158.21Y-152.69
X169.363Y-169.1
X169.903Y-131.1
X171.903Y-169.1
X172.443Y-131.1
X174.443Y-169.1
X174.983Y-131.1
X176.983Y-169.1
X177.523Y-131.1
X179.523Y-169.1
X180.063Y-131.1
X236.84Y-112.48
X236.84Y-123.38
X238.6Y-128.9
X238.6Y-131.44
X238.6Y-133.98
X238.6Y-136.52
X238.6Y-139.06
X238.6Y-141.6
X253.84Y-128.9
X253.84Y-131.44
X253.84Y-133.98
X253.84Y-136.52
X253.84Y-139.06
X253.84Y-141.6
X254.84Y-112.58
X254.84Y-123.38
T6
X134.157Y-146.16
X134.157Y-148.7
X134.157Y-151.24
X134.157Y-153.78
X138.252Y-131.248
X138.299Y-168.787
X139.522Y-129.049
X139.569Y-170.987
X140.792Y-126.849
X140.839Y-173.186
X142.017Y-146.16
X142.017Y-148.7
X142.017Y-151.24
X142.017Y-153.78
X142.062Y-124.649
X142.109Y-175.386
X145.059Y-135.178
X145.106Y-164.857
X146.329Y-132.979
X146.376Y-167.057
X147.599Y-130.779
X147.646Y-169.256
X148.869Y-128.579
X148.916Y-171.456
X153.051Y-186.385
X153.15Y-113.665
X155.251Y-187.655
X155.35Y-112.395
X156.981Y-179.578
X157.1Y-120.506
X157.451Y-188.925
X157.55Y-111.125
X159.181Y-180.848
X159.3Y-119.236
X159.65Y-190.195
X159.75Y-109.855
X161.381Y-182.118
X161.5Y-117.966
X163.58Y-183.388
X163.7Y-116.696
X176.57Y-146.28
X176.57Y-148.82
X176.57Y-151.36
X176.57Y-153.9
X178.6Y-188.0
X181.14Y-188.0
X183.68Y-188.0
X188.19Y-106.1
X188.19Y-193.9
X189.63Y-177.0
X189.75Y-123.0
X190.73Y-106.1
X190.73Y-193.9
X192.17Y-177.0
X192.29Y-123.0
X193.27Y-106.1
X193.27Y-193.9
X194.71Y-177.0
X194.83Y-123.0
X195.81Y-106.1
X195.81Y-193.9
X197.25Y-177.0
X197.37Y-123.0
X225.3Y-197.98
X227.84Y-197.98
X230.93Y-102.0
X230.93Y-104.54
X230.93Y-107.08
X233.47Y-102.0
X233.47Y-104.54
X233.47Y-107.08
X236.01Y-102.0
X236.01Y-104.54
X236.01Y-107.08
X238.55Y-102.0
X238.55Y-104.54
X238.55Y-107.08
X241.09Y-102.0
X241.09Y-104.54
X241.09Y-107.08
X243.63Y-102.0
X243.63Y-104.54
X243.63Y-107.08
X246.17Y-102.0
X246.17Y-104.54
X246.17Y-107.08
X248.71Y-102.0
X248.71Y-104.54
X248.71Y-107.08
X251.25Y-102.0
X251.25Y-104.54
X251.25Y-107.08
X253.79Y-102.0
X253.79Y-104.54
X253.79Y-107.08
X256.33Y-102.0
X256.33Y-104.54
X256.33Y-107.08
X258.87Y-102.0
X258.87Y-104.54
X258.87Y-107.08
X261.41Y-102.0
X261.41Y-104.54
X261.41Y-107.08
X263.95Y-102.0
X263.95Y-104.54
X263.95Y-107.08
X265.91Y-146.16
X265.91Y-148.7
X265.91Y-151.24
X265.91Y-153.78
X266.49Y-102.0
X266.49Y-104.54
X266.49Y-107.08
X269.03Y-102.0
X269.03Y-104.54
X269.03Y-107.08
X271.65Y-146.206
X271.65Y-148.746
X271.65Y-151.286
X271.65Y-153.826
X272.24Y-119.23
X272.24Y-122.73
X272.24Y-127.38
X272.24Y-130.88
T7
X202.3Y-185.95
M30
