%TF.GenerationSoftware,KiCad,Pcbnew,9.0.6*%
%TF.CreationDate,2025-11-26T15:01:57+01:00*%
%TF.ProjectId,kit-prisme,6b69742d-7072-4697-936d-652e6b696361,rev?*%
%TF.SameCoordinates,Original*%
%TF.FileFunction,Profile,NP*%
%FSLAX46Y46*%
G04 Gerber Fmt 4.6, Leading zero omitted, Abs format (unit mm)*
G04 Created by KiCad (PCBNEW 9.0.6) date 2025-11-26 15:01:57*
%MOMM*%
%LPD*%
G01*
G04 APERTURE LIST*
%TA.AperFunction,Profile*%
%ADD10C,0.050000*%
%TD*%
G04 APERTURE END LIST*
D10*
X187014214Y-94014214D02*
G75*
G02*
X187014214Y-92014186I-14J1000014D01*
G01*
X122117246Y-155000000D02*
G75*
G02*
X120117246Y-155000000I-1000000J0D01*
G01*
X283854214Y-144980000D02*
G75*
G02*
X285853985Y-145000047I999986J0D01*
G01*
X141915186Y-203164877D02*
X144915186Y-197968724D01*
X273840000Y-199980000D02*
X207014214Y-199999948D01*
X187000000Y-208000000D02*
G75*
G02*
X187000000Y-206000000I0J1000000D01*
G01*
X161856233Y-113595918D02*
X161844879Y-113570983D01*
X150701924Y-91663015D02*
X153701924Y-96859168D01*
X151080000Y-183040000D02*
X144630000Y-186410000D01*
X269840000Y-162980000D02*
G75*
G02*
X267840000Y-160980000I0J2000000D01*
G01*
X146024941Y-103691219D02*
G75*
G02*
X145024926Y-101959142I-500041J866019D01*
G01*
X165039542Y-191112318D02*
X160709415Y-188612318D01*
X283854214Y-154980000D02*
X283854214Y-144980000D01*
X136117246Y-153900000D02*
G75*
G02*
X138610287Y-153769154I1249954J0D01*
G01*
X178417246Y-190000000D02*
G75*
G02*
X161713115Y-186345200I-46J40000000D01*
G01*
X114117246Y-145000000D02*
X120117246Y-145000000D01*
X181000000Y-194000000D02*
G75*
G02*
X183000000Y-192000000I2000000J0D01*
G01*
X201014214Y-86014214D02*
X197014214Y-86014214D01*
X273840000Y-162980000D02*
X269840000Y-162980000D01*
X181000000Y-194000000D02*
X181000000Y-212000000D01*
X275840000Y-134980000D02*
X275840000Y-101980000D01*
X160819170Y-111315574D02*
X165149297Y-108815574D01*
X187014214Y-86014214D02*
X183014214Y-86014214D01*
X143773560Y-125355771D02*
X144870000Y-123530000D01*
X201000000Y-192000000D02*
G75*
G02*
X203000000Y-194000000I0J-2000000D01*
G01*
X197014214Y-94014214D02*
X187014214Y-94014214D01*
X125381734Y-174813174D02*
G75*
G02*
X127113823Y-173813152I866066J499974D01*
G01*
X138600631Y-153770039D02*
X138614350Y-153768726D01*
X271854214Y-160979949D02*
G75*
G02*
X269840000Y-158980000I-14214J1999949D01*
G01*
X138540000Y-134440000D02*
X132100000Y-135950000D01*
X137828789Y-101495066D02*
G75*
G02*
X138560851Y-98763037I1732111J999966D01*
G01*
X138540000Y-134440000D02*
X139773651Y-132283974D01*
X122117246Y-145000000D02*
X122117246Y-155000000D01*
X187000000Y-214000000D02*
X187000000Y-208000000D01*
X118185582Y-174349072D02*
X120185582Y-177813174D01*
X275840000Y-197980000D02*
X275840000Y-164980000D01*
X138220000Y-165110000D02*
X132030000Y-164050000D01*
X196000000Y-192000000D02*
G75*
G02*
X196000000Y-190000000I0J1000000D01*
G01*
X132113785Y-182473428D02*
G75*
G02*
X130381669Y-183473466I-866085J-499972D01*
G01*
X138451085Y-201164877D02*
G75*
G02*
X137719095Y-198432861I999915J1731977D01*
G01*
X197000000Y-214000000D02*
X201000000Y-214000000D01*
X132149296Y-117489746D02*
X127149296Y-126150000D01*
X196000000Y-190000000D02*
X203000000Y-190000000D01*
X188000000Y-192000000D02*
X183000000Y-192000000D01*
X150575441Y-208164877D02*
X154039542Y-210164877D01*
X132030000Y-164050000D02*
X118917632Y-171617022D01*
X129917632Y-190669580D02*
G75*
G02*
X127185535Y-189937557I-1000032J1732080D01*
G01*
X139773651Y-132283975D02*
G75*
G02*
X142045622Y-133348316I1143549J-516025D01*
G01*
X116117246Y-161000000D02*
X130790000Y-161000000D01*
X127113785Y-173813174D02*
X132113785Y-182473428D01*
X145866716Y-126833804D02*
G75*
G02*
X155317805Y-117300000I32600484J-22866196D01*
G01*
X183000000Y-214000000D02*
G75*
G02*
X181000000Y-212000000I0J2000000D01*
G01*
X116117246Y-161000000D02*
G75*
G02*
X114117200Y-159000000I-46J2000000D01*
G01*
X267825155Y-153980000D02*
G75*
G02*
X269854845Y-153980000I1014845J0D01*
G01*
X153892563Y-115317739D02*
G75*
G02*
X155317216Y-117299956I724637J-982261D01*
G01*
X114117246Y-141000000D02*
X114117246Y-145000000D01*
X155234997Y-182574639D02*
G75*
G02*
X145802158Y-173125284I23182303J32574639D01*
G01*
X207000000Y-100000000D02*
X273840000Y-99980000D01*
X183014214Y-108014214D02*
X188014214Y-108014214D01*
X269840000Y-136980000D02*
X273840000Y-136980000D01*
X153575441Y-202968773D02*
X150575441Y-208164877D01*
X205000000Y-102000000D02*
G75*
G02*
X207000000Y-100000000I2000000J0D01*
G01*
X285854214Y-155000000D02*
G75*
G02*
X283853986Y-154980000I-1000014J20000D01*
G01*
X203014214Y-106014214D02*
X203014214Y-88014214D01*
X197014214Y-92014214D02*
G75*
G02*
X197014214Y-94014186I-14J-999986D01*
G01*
X142390000Y-116470000D02*
X144870000Y-123530000D01*
X127149296Y-126150000D02*
G75*
G02*
X125417290Y-125150025I-865996J500000D01*
G01*
X289900000Y-139000000D02*
G75*
G02*
X291900000Y-141000000I0J-2000000D01*
G01*
X154166026Y-89663015D02*
X150701924Y-91663015D01*
X145867323Y-126835054D02*
G75*
G02*
X143773591Y-125355727I-1050123J735054D01*
G01*
X132000000Y-139000000D02*
X136117246Y-143010000D01*
X120185582Y-177813174D02*
X125381734Y-174813174D01*
X130790000Y-161000000D02*
X136117246Y-157180000D01*
X154701897Y-98591219D02*
X146025045Y-103691157D01*
X271854214Y-160980000D02*
X289897783Y-160999998D01*
X165039542Y-191112318D02*
G75*
G02*
X165771617Y-193844382I-1000042J-1732082D01*
G01*
X203000000Y-110000000D02*
X196014214Y-110014213D01*
X196000000Y-150000000D02*
G75*
G02*
X184000000Y-150000000I-6000000J0D01*
G01*
X184000000Y-150000000D02*
G75*
G02*
X196000000Y-150000000I6000000J0D01*
G01*
X142024941Y-96763015D02*
X138560964Y-98763015D01*
X136117246Y-157180000D02*
X136117246Y-153900000D01*
X188014214Y-110014214D02*
X178436501Y-110000000D01*
X120117246Y-155000000D02*
X114117246Y-155000000D01*
X203000000Y-212000000D02*
X203000000Y-194000000D01*
X203000000Y-190000000D02*
G75*
G02*
X205000000Y-192000000I0J-2000000D01*
G01*
X130381734Y-183473428D02*
X125185582Y-186473428D01*
X197000000Y-206000000D02*
G75*
G02*
X197000000Y-208000000I0J-1000000D01*
G01*
X267840000Y-145980000D02*
X267840000Y-138980000D01*
X275840000Y-134980000D02*
G75*
G02*
X273840000Y-136980000I-2000000J0D01*
G01*
X153701924Y-96859168D02*
G75*
G02*
X154701918Y-98591208I499976J-866032D01*
G01*
X154575441Y-201236673D02*
G75*
G02*
X153575419Y-202968762I-500041J-866027D01*
G01*
X267840000Y-138980000D02*
G75*
G02*
X269840000Y-136980000I2000000J0D01*
G01*
X130417245Y-116489746D02*
G75*
G02*
X132149387Y-117489799I866055J-500054D01*
G01*
X145802147Y-173125292D02*
X145766279Y-173150000D01*
X125185582Y-186473428D02*
X127185582Y-189937530D01*
X127221093Y-110025644D02*
G75*
G02*
X129953121Y-109293631I1732007J-999956D01*
G01*
X273840000Y-162980000D02*
G75*
G02*
X275840000Y-164980000I0J-2000000D01*
G01*
X118953144Y-128346152D02*
G75*
G02*
X118221078Y-125614093I999956J1732052D01*
G01*
X203014214Y-106014214D02*
G75*
G02*
X201014214Y-108014214I-2000014J14D01*
G01*
X114117246Y-141000000D02*
G75*
G02*
X116117246Y-139000046I1999954J0D01*
G01*
X125417246Y-125150000D02*
X120221093Y-122149999D01*
X138612307Y-146249407D02*
G75*
G02*
X142089961Y-133368712I39854893J-3850593D01*
G01*
X201000000Y-192000000D02*
X196000000Y-192000000D01*
X269840000Y-140980000D02*
G75*
G02*
X271854214Y-138980051I2000000J0D01*
G01*
X145330000Y-177370000D02*
X143738140Y-174607401D01*
X141981292Y-166492339D02*
G75*
G02*
X139738068Y-167679236I-1114092J-607661D01*
G01*
X289900000Y-139000002D02*
X271854214Y-138980000D01*
X160709415Y-188612318D02*
G75*
G02*
X161698900Y-186376140I507785J1112318D01*
G01*
X118185582Y-174349072D02*
G75*
G02*
X118917639Y-171617034I1732118J999972D01*
G01*
X291900000Y-155000000D02*
X285854214Y-155000000D01*
X291900000Y-159000000D02*
X291900000Y-155000000D01*
X205000000Y-108000000D02*
X205000000Y-102000000D01*
X144630000Y-186410000D02*
X137719034Y-198432826D01*
X156771593Y-209432826D02*
G75*
G02*
X154039518Y-210164918I-1732093J1000026D01*
G01*
X141981292Y-166492341D02*
G75*
G02*
X138600626Y-153770036I36435908J16492341D01*
G01*
X205000000Y-198000000D02*
X205000000Y-192000000D01*
X142460000Y-183420000D02*
X145330000Y-177370000D01*
X269840000Y-140980000D02*
X269840000Y-145980000D01*
X196014214Y-110014214D02*
G75*
G02*
X196014214Y-108014186I-14J1000014D01*
G01*
X183014214Y-108014214D02*
G75*
G02*
X181014186Y-106014214I-14J2000014D01*
G01*
X181014214Y-88014214D02*
X181014214Y-106014214D01*
X144915186Y-197968724D02*
G75*
G02*
X145915192Y-196236663I500014J866024D01*
G01*
X151730000Y-116560000D02*
X153890966Y-115315574D01*
X151730000Y-116560000D02*
X145170000Y-114220000D01*
X291900000Y-145000000D02*
X291900000Y-141000000D01*
X187014214Y-92014214D02*
X187014214Y-86014214D01*
X156771593Y-209432826D02*
X165771593Y-193844368D01*
X127221093Y-110025644D02*
X125221093Y-113489745D01*
X114117246Y-155000000D02*
X114117246Y-159000000D01*
X153781212Y-184612318D02*
X151080000Y-183040000D01*
X181014214Y-88014214D02*
G75*
G02*
X183014214Y-86014214I1999986J14D01*
G01*
X188000000Y-190000000D02*
G75*
G02*
X188000000Y-192000000I0J-1000000D01*
G01*
X137828789Y-101495066D02*
X145170000Y-114220000D01*
X269854214Y-153980000D02*
X269840000Y-158980000D01*
X125221093Y-113489745D02*
X130417245Y-116489746D01*
X205000000Y-108000000D02*
G75*
G02*
X203000000Y-110000000I-2000000J0D01*
G01*
X267840000Y-160980000D02*
X267825155Y-153980000D01*
X142045695Y-133348352D02*
X142089957Y-133368712D01*
X187000000Y-206000000D02*
X197000000Y-206000000D01*
X273840000Y-99980000D02*
G75*
G02*
X275840000Y-101980000I0J-2000000D01*
G01*
X197014214Y-86014214D02*
X197014214Y-92014214D01*
X154166026Y-89663015D02*
G75*
G02*
X156898143Y-90395027I1000074J-1731985D01*
G01*
X161856231Y-113595918D02*
G75*
G02*
X178436501Y-110000006I16580169J-36426282D01*
G01*
X132000000Y-139000000D02*
X116117246Y-139000000D01*
X143738140Y-174607403D02*
G75*
G02*
X145766219Y-173150770I1029060J707403D01*
G01*
X196014214Y-108014214D02*
X201014214Y-108014214D01*
X138451085Y-201164877D02*
X141915186Y-203164877D01*
X269840000Y-145980000D02*
G75*
G02*
X267840000Y-145980000I-1000000J0D01*
G01*
X138612308Y-146249407D02*
G75*
G02*
X136117154Y-145999993I-1245108J149407D01*
G01*
X285854013Y-145000000D02*
X291900000Y-145000000D01*
X120117246Y-145000000D02*
G75*
G02*
X122117246Y-145000000I1000000J0D01*
G01*
X120221093Y-122149999D02*
X118221092Y-125614101D01*
X118953144Y-128346152D02*
X132100000Y-135950000D01*
X145915186Y-196236673D02*
X154575441Y-201236673D01*
X188014214Y-108014214D02*
G75*
G02*
X188014214Y-110014186I-14J-999986D01*
G01*
X136117246Y-146000000D02*
X136117246Y-143010000D01*
X197000000Y-208000000D02*
X197000000Y-214000000D01*
X142390000Y-116470000D02*
X129953143Y-109293593D01*
X207014214Y-199999949D02*
G75*
G02*
X205000000Y-198000000I-14214J1999949D01*
G01*
X155234998Y-182574639D02*
G75*
G02*
X153781181Y-184612361I-717798J-1025361D01*
G01*
X201014214Y-86014214D02*
G75*
G02*
X203014186Y-88014214I-14J-1999986D01*
G01*
X165881347Y-106083524D02*
G75*
G02*
X165149280Y-108815545I-1732047J-999976D01*
G01*
X161717246Y-186350000D02*
X161698911Y-186376105D01*
X145024941Y-101959168D02*
X142024941Y-96763015D01*
X203000000Y-212000000D02*
G75*
G02*
X201000000Y-214000000I-2000000J0D01*
G01*
X183000000Y-214000000D02*
X187000000Y-214000000D01*
X275840000Y-197980000D02*
G75*
G02*
X273840000Y-199980000I-2000000J0D01*
G01*
X139738140Y-167679199D02*
X138220000Y-165110000D01*
X129917632Y-190669580D02*
X142460000Y-183420000D01*
X178417200Y-190000000D02*
X188000000Y-190000000D01*
X291900000Y-159000000D02*
G75*
G02*
X289900000Y-161000000I-2000000J0D01*
G01*
X165881347Y-106083524D02*
X156898076Y-90395112D01*
X161844881Y-113570983D02*
G75*
G02*
X160819155Y-111315539I-527681J1120983D01*
G01*
M02*
