%TF.GenerationSoftware,KiCad,Pcbnew,9.0.6*%
%TF.CreationDate,2025-11-26T15:01:57+01:00*%
%TF.ProjectId,kit-prisme,6b69742d-7072-4697-936d-652e6b696361,rev?*%
%TF.SameCoordinates,Original*%
%TF.FileFunction,Soldermask,Bot*%
%TF.FilePolarity,Negative*%
%FSLAX46Y46*%
G04 Gerber Fmt 4.6, Leading zero omitted, Abs format (unit mm)*
G04 Created by KiCad (PCBNEW 9.0.6) date 2025-11-26 15:01:57*
%MOMM*%
%LPD*%
G01*
G04 APERTURE LIST*
G04 Aperture macros list*
%AMRoundRect*
0 Rectangle with rounded corners*
0 $1 Rounding radius*
0 $2 $3 $4 $5 $6 $7 $8 $9 X,Y pos of 4 corners*
0 Add a 4 corners polygon primitive as box body*
4,1,4,$2,$3,$4,$5,$6,$7,$8,$9,$2,$3,0*
0 Add four circle primitives for the rounded corners*
1,1,$1+$1,$2,$3*
1,1,$1+$1,$4,$5*
1,1,$1+$1,$6,$7*
1,1,$1+$1,$8,$9*
0 Add four rect primitives between the rounded corners*
20,1,$1+$1,$2,$3,$4,$5,0*
20,1,$1+$1,$4,$5,$6,$7,0*
20,1,$1+$1,$6,$7,$8,$9,0*
20,1,$1+$1,$8,$9,$2,$3,0*%
%AMHorizOval*
0 Thick line with rounded ends*
0 $1 width*
0 $2 $3 position (X,Y) of the first rounded end (center of the circle)*
0 $4 $5 position (X,Y) of the second rounded end (center of the circle)*
0 Add line between two ends*
20,1,$1,$2,$3,$4,$5,0*
0 Add two circle primitives to create the rounded ends*
1,1,$1,$2,$3*
1,1,$1,$4,$5*%
%AMRotRect*
0 Rectangle, with rotation*
0 The origin of the aperture is its center*
0 $1 length*
0 $2 width*
0 $3 Rotation angle, in degrees counterclockwise*
0 Add horizontal line*
21,1,$1,$2,0,0,$3*%
%AMFreePoly0*
4,1,23,0.500000,-0.750000,0.000000,-0.750000,0.000000,-0.745722,-0.065263,-0.745722,-0.191342,-0.711940,-0.304381,-0.646677,-0.396677,-0.554381,-0.461940,-0.441342,-0.495722,-0.315263,-0.495722,-0.250000,-0.500000,-0.250000,-0.500000,0.250000,-0.495722,0.250000,-0.495722,0.315263,-0.461940,0.441342,-0.396677,0.554381,-0.304381,0.646677,-0.191342,0.711940,-0.065263,0.745722,0.000000,0.745722,
0.000000,0.750000,0.500000,0.750000,0.500000,-0.750000,0.500000,-0.750000,$1*%
%AMFreePoly1*
4,1,23,0.000000,0.745722,0.065263,0.745722,0.191342,0.711940,0.304381,0.646677,0.396677,0.554381,0.461940,0.441342,0.495722,0.315263,0.495722,0.250000,0.500000,0.250000,0.500000,-0.250000,0.495722,-0.250000,0.495722,-0.315263,0.461940,-0.441342,0.396677,-0.554381,0.304381,-0.646677,0.191342,-0.711940,0.065263,-0.745722,0.000000,-0.745722,0.000000,-0.750000,-0.500000,-0.750000,
-0.500000,0.750000,0.000000,0.750000,0.000000,0.745722,0.000000,0.745722,$1*%
G04 Aperture macros list end*
%ADD10C,3.200000*%
%ADD11C,1.700000*%
%ADD12R,1.700000X1.700000*%
%ADD13O,1.500000X1.050000*%
%ADD14R,1.500000X1.050000*%
%ADD15RotRect,1.700000X1.700000X120.000000*%
%ADD16R,1.050000X1.500000*%
%ADD17O,1.050000X1.500000*%
%ADD18RoundRect,0.190500X0.154802X1.157124X-0.924698X-0.712624X-0.154802X-1.157124X0.924698X0.712624X0*%
%ADD19RoundRect,0.190500X1.079500X0.444500X-1.079500X0.444500X-1.079500X-0.444500X1.079500X-0.444500X0*%
%ADD20RotRect,1.050000X1.500000X210.000000*%
%ADD21HorizOval,1.050000X-0.112500X0.194856X0.112500X-0.194856X0*%
%ADD22RoundRect,0.190500X1.157124X-0.154802X-0.712624X0.924698X-1.157124X0.154802X0.712624X-0.924698X0*%
%ADD23RoundRect,0.190500X0.444500X-1.079500X0.444500X1.079500X-0.444500X1.079500X-0.444500X-1.079500X0*%
%ADD24RotRect,1.050000X1.500000X330.000000*%
%ADD25HorizOval,1.050000X-0.112500X-0.194856X0.112500X0.194856X0*%
%ADD26C,2.000000*%
%ADD27RotRect,1.700000X1.700000X240.000000*%
%ADD28RotRect,1.050000X1.500000X240.000000*%
%ADD29HorizOval,1.050000X-0.194856X0.112500X0.194856X-0.112500X0*%
%ADD30R,4.000000X4.000000*%
%ADD31RotRect,1.700000X1.700000X150.000000*%
%ADD32RoundRect,0.190500X-1.079500X-0.444500X1.079500X-0.444500X1.079500X0.444500X-1.079500X0.444500X0*%
%ADD33C,3.600000*%
%ADD34R,1.524000X1.524000*%
%ADD35C,1.524000*%
%ADD36RoundRect,0.190500X-0.444500X1.079500X-0.444500X-1.079500X0.444500X-1.079500X0.444500X1.079500X0*%
%ADD37RoundRect,0.190500X0.924698X-0.712624X-0.154802X1.157124X-0.924698X0.712624X0.154802X-1.157124X0*%
%ADD38C,1.600000*%
%ADD39RotRect,1.050000X1.500000X300.000000*%
%ADD40HorizOval,1.050000X-0.194856X-0.112500X0.194856X0.112500X0*%
%ADD41RotRect,1.700000X1.700000X210.000000*%
%ADD42RoundRect,0.190500X0.712624X0.924698X-1.157124X-0.154802X-0.712624X-0.924698X1.157124X0.154802X0*%
%ADD43RoundRect,0.150000X-0.150000X0.825000X-0.150000X-0.825000X0.150000X-0.825000X0.150000X0.825000X0*%
%ADD44RoundRect,0.250000X0.337500X0.475000X-0.337500X0.475000X-0.337500X-0.475000X0.337500X-0.475000X0*%
%ADD45FreePoly0,0.000000*%
%ADD46FreePoly1,0.000000*%
%ADD47RoundRect,0.250000X0.350000X0.450000X-0.350000X0.450000X-0.350000X-0.450000X0.350000X-0.450000X0*%
%ADD48R,2.460000X2.310000*%
%ADD49RoundRect,0.100000X0.687500X0.100000X-0.687500X0.100000X-0.687500X-0.100000X0.687500X-0.100000X0*%
%ADD50RoundRect,0.102000X-0.736600X-0.177800X0.736600X-0.177800X0.736600X0.177800X-0.736600X0.177800X0*%
G04 APERTURE END LIST*
%TO.C,JP2*%
G36*
X199930000Y-145280000D02*
G01*
X200230000Y-145280000D01*
X200230000Y-143780000D01*
X199930000Y-143780000D01*
X199930000Y-145280000D01*
G37*
%TO.C,JP4*%
G36*
X199930000Y-152380000D02*
G01*
X200230000Y-152380000D01*
X200230000Y-150880000D01*
X199930000Y-150880000D01*
X199930000Y-152380000D01*
G37*
%TO.C,JP3*%
G36*
X199930000Y-148830000D02*
G01*
X200230000Y-148830000D01*
X200230000Y-147330000D01*
X199930000Y-147330000D01*
X199930000Y-148830000D01*
G37*
%TO.C,JP5*%
G36*
X199930000Y-155930000D02*
G01*
X200230000Y-155930000D01*
X200230000Y-154430000D01*
X199930000Y-154430000D01*
X199930000Y-155930000D01*
G37*
%TD*%
D10*
%TO.C,REF\u002A\u002A4*%
X160012236Y-103929495D03*
%TD*%
%TO.C,REF\u002A\u002A*%
X227000000Y-135000000D03*
%TD*%
%TO.C,REF\u002A\u002A*%
X185000000Y-198860000D03*
%TD*%
%TO.C,REF\u002A\u002A*%
X265000000Y-114980000D03*
%TD*%
%TO.C,REF\u002A\u002A8*%
X147788747Y-189120000D03*
%TD*%
%TO.C,U1*%
X202300000Y-185950000D03*
%TD*%
D11*
%TO.C,J9*%
X176570000Y-153900000D03*
X176570000Y-151360000D03*
X176570000Y-148820000D03*
D12*
X176570000Y-146280000D03*
%TD*%
%TO.C,J2*%
X230930000Y-107080000D03*
D11*
X233470000Y-107080000D03*
X236010000Y-107080000D03*
X238550000Y-107080000D03*
X241090000Y-107080000D03*
X243630000Y-107080000D03*
X246170000Y-107080000D03*
X248710000Y-107080000D03*
X251250000Y-107080000D03*
X253790000Y-107080000D03*
X256330000Y-107080000D03*
X258870000Y-107080000D03*
X261410000Y-107080000D03*
X263950000Y-107080000D03*
X266490000Y-107080000D03*
X269030000Y-107080000D03*
%TD*%
D12*
%TO.C,J1*%
X225300000Y-197980000D03*
D11*
X227840000Y-197980000D03*
%TD*%
D10*
%TO.C,REF\u002A\u002A*%
X199000000Y-198860000D03*
%TD*%
D12*
%TO.C,J24*%
X265910000Y-146160000D03*
D11*
X265910000Y-148700000D03*
X265910000Y-151240000D03*
X265910000Y-153780000D03*
%TD*%
D10*
%TO.C,REF\u002A\u002A*%
X129157246Y-156970000D03*
%TD*%
D13*
%TO.C,Q2*%
X181610000Y-148690000D03*
X181610000Y-149960000D03*
D14*
X181610000Y-151230000D03*
%TD*%
D12*
%TO.C,J21*%
X142017246Y-153780000D03*
D11*
X142017246Y-151240000D03*
X142017246Y-148700000D03*
X142017246Y-146160000D03*
%TD*%
D15*
%TO.C,J11*%
X153150500Y-113664622D03*
D11*
X155350205Y-112394622D03*
X157549909Y-111124622D03*
X159749614Y-109854622D03*
%TD*%
D16*
%TO.C,Q11*%
X190430000Y-198860000D03*
D17*
X191700000Y-198860000D03*
X192970000Y-198860000D03*
%TD*%
D10*
%TO.C,REF\u002A\u002A*%
X227000000Y-184980000D03*
%TD*%
D18*
%TO.C,U18*%
X149445669Y-195850127D03*
X153082975Y-197950127D03*
%TD*%
D14*
%TO.C,Q6*%
X129157246Y-148430000D03*
D13*
X129157246Y-149700000D03*
X129157246Y-150970000D03*
%TD*%
D16*
%TO.C,Q10*%
X193570000Y-101140000D03*
D17*
X192300000Y-101140000D03*
X191030000Y-101140000D03*
%TD*%
D13*
%TO.C,Q1*%
X181610000Y-142690000D03*
X181610000Y-143960000D03*
D14*
X181610000Y-145230000D03*
%TD*%
D10*
%TO.C,REF\u002A\u002A*%
X265000000Y-184980000D03*
%TD*%
D19*
%TO.C,U16*%
X124170000Y-147760000D03*
X124170000Y-151960000D03*
%TD*%
D20*
%TO.C,Q4*%
X155283737Y-106659495D03*
D21*
X154183885Y-107294495D03*
X153084032Y-107929495D03*
%TD*%
D10*
%TO.C,REF\u002A\u002A*%
X185000000Y-101140000D03*
%TD*%
D12*
%TO.C,J16*%
X271650000Y-146205786D03*
D11*
X271650000Y-148745786D03*
X271650000Y-151285786D03*
X271650000Y-153825786D03*
%TD*%
D22*
%TO.C,U15*%
X132596454Y-121043676D03*
X130496454Y-124680982D03*
%TD*%
D12*
%TO.C,J10*%
X178600000Y-188000000D03*
D11*
X181140000Y-188000000D03*
X183680000Y-188000000D03*
%TD*%
D12*
%TO.C,J18*%
X195810000Y-193900000D03*
D11*
X193270000Y-193900000D03*
X190730000Y-193900000D03*
X188190000Y-193900000D03*
%TD*%
D23*
%TO.C,U20*%
X194200000Y-96200000D03*
X190000000Y-96200000D03*
%TD*%
D24*
%TO.C,Q8*%
X152517246Y-191850000D03*
D25*
X153617098Y-192485000D03*
X154716951Y-193120000D03*
%TD*%
D26*
%TO.C,J6*%
X272240000Y-122730000D03*
X272240000Y-119230000D03*
%TD*%
D27*
%TO.C,J15*%
X159650481Y-190194873D03*
D11*
X157450776Y-188924873D03*
X155251072Y-187654873D03*
X153051367Y-186384873D03*
%TD*%
D10*
%TO.C,REF\u002A\u002A*%
X227000000Y-164980000D03*
%TD*%
D14*
%TO.C,Q9*%
X276650000Y-151555786D03*
D13*
X276650000Y-150285786D03*
X276650000Y-149015786D03*
%TD*%
D10*
%TO.C,REF\u002A\u002A*%
X276650000Y-157015786D03*
%TD*%
D28*
%TO.C,Q5*%
X136596580Y-124115252D03*
D29*
X135961580Y-125215103D03*
X135326579Y-126314956D03*
%TD*%
D30*
%TO.C,U2*%
X236840000Y-112480000D03*
X236840000Y-123380000D03*
X254840000Y-123380000D03*
X254840000Y-112580000D03*
%TD*%
D10*
%TO.C,REF\u002A\u002A*%
X276650000Y-143015786D03*
%TD*%
%TO.C,REF\u002A\u002A1*%
X132326582Y-131511109D03*
%TD*%
D13*
%TO.C,Q3*%
X181610000Y-154690000D03*
X181610000Y-155960000D03*
D14*
X181610000Y-157230000D03*
%TD*%
D31*
%TO.C,J20*%
X145058669Y-135178488D03*
D11*
X146328670Y-132978784D03*
X147598668Y-130779078D03*
X148868669Y-128579374D03*
%TD*%
D32*
%TO.C,U19*%
X281650000Y-152215786D03*
X281650000Y-148015786D03*
%TD*%
D33*
%TO.C,U6*%
X235290000Y-152790000D03*
X255650000Y-191570000D03*
D34*
X256650000Y-188270000D03*
D35*
X256650000Y-185730000D03*
X256650000Y-183190000D03*
X256650000Y-180650000D03*
X256650000Y-178110000D03*
X256650000Y-175570000D03*
X256650000Y-173030000D03*
X256650000Y-170490000D03*
X256650000Y-167950000D03*
X256650000Y-165410000D03*
X256650000Y-162870000D03*
X256650000Y-160330000D03*
X256650000Y-157790000D03*
X233790000Y-157790000D03*
X233790000Y-160330000D03*
X233790000Y-162870000D03*
X233790000Y-165410000D03*
X233790000Y-167950000D03*
X233790000Y-170490000D03*
X233790000Y-173030000D03*
X233790000Y-175570000D03*
X233790000Y-178110000D03*
X233790000Y-180650000D03*
X233790000Y-183190000D03*
X233790000Y-185730000D03*
X233790000Y-188270000D03*
%TD*%
D36*
%TO.C,U21*%
X189800000Y-203900000D03*
X194000000Y-203900000D03*
%TD*%
D10*
%TO.C,REF\u002A\u002A*%
X227000000Y-115000000D03*
%TD*%
D26*
%TO.C,J5*%
X272240000Y-130880000D03*
X272240000Y-127380000D03*
%TD*%
D10*
%TO.C,REF\u002A\u002A2*%
X139326581Y-119386754D03*
%TD*%
D37*
%TO.C,U14*%
X153355313Y-101999368D03*
X149718007Y-104099368D03*
%TD*%
D12*
%TO.C,J17*%
X188190000Y-106100000D03*
D11*
X190730000Y-106100000D03*
X193270000Y-106100000D03*
X195810000Y-106100000D03*
%TD*%
D38*
%TO.C,U5*%
X253840000Y-141600000D03*
X253840000Y-139060000D03*
X253840000Y-136520000D03*
X253840000Y-133980000D03*
X253840000Y-131440000D03*
X253840000Y-128900000D03*
X238600000Y-128900000D03*
X238600000Y-131440000D03*
X238600000Y-133980000D03*
X238600000Y-136520000D03*
X238600000Y-139060000D03*
X238600000Y-141600000D03*
%TD*%
D10*
%TO.C,REF\u002A\u002A6*%
X132374169Y-168524424D03*
%TD*%
%TO.C,REF\u002A\u002A5*%
X139374168Y-180648780D03*
%TD*%
%TO.C,REF\u002A\u002A*%
X199000000Y-101140000D03*
%TD*%
D27*
%TO.C,J23*%
X163580482Y-183387914D03*
D11*
X161380777Y-182117914D03*
X159181073Y-180847914D03*
X156981368Y-179577914D03*
%TD*%
D10*
%TO.C,REF\u002A\u002A7*%
X159913102Y-196120000D03*
%TD*%
%TO.C,REF\u002A\u002A*%
X265000000Y-164980000D03*
%TD*%
%TO.C,REF\u002A\u002A*%
X190000000Y-135000000D03*
%TD*%
D12*
%TO.C,J3*%
X230930000Y-104540000D03*
D11*
X233470000Y-104540000D03*
X236010000Y-104540000D03*
X238550000Y-104540000D03*
X241090000Y-104540000D03*
X243630000Y-104540000D03*
X246170000Y-104540000D03*
X248710000Y-104540000D03*
X251250000Y-104540000D03*
X253790000Y-104540000D03*
X256330000Y-104540000D03*
X258870000Y-104540000D03*
X261410000Y-104540000D03*
X263950000Y-104540000D03*
X266490000Y-104540000D03*
X269030000Y-104540000D03*
%TD*%
D15*
%TO.C,J19*%
X157100500Y-120506221D03*
D11*
X159300205Y-119236221D03*
X161499909Y-117966221D03*
X163699614Y-116696221D03*
%TD*%
D26*
%TO.C,BZ1*%
X158210000Y-152690000D03*
X158210000Y-147690000D03*
%TD*%
D39*
%TO.C,Q7*%
X135104167Y-173252922D03*
D40*
X135739167Y-174352773D03*
X136374168Y-175452626D03*
%TD*%
D12*
%TO.C,J13*%
X134157246Y-153780000D03*
D11*
X134157246Y-151240000D03*
X134157246Y-148700000D03*
X134157246Y-146160000D03*
%TD*%
D10*
%TO.C,REF\u002A\u002A*%
X265000000Y-134980000D03*
%TD*%
D12*
%TO.C,J4*%
X230930000Y-102000000D03*
D11*
X233470000Y-102000000D03*
X236010000Y-102000000D03*
X238550000Y-102000000D03*
X241090000Y-102000000D03*
X243630000Y-102000000D03*
X246170000Y-102000000D03*
X248710000Y-102000000D03*
X251250000Y-102000000D03*
X253790000Y-102000000D03*
X256330000Y-102000000D03*
X258870000Y-102000000D03*
X261410000Y-102000000D03*
X263950000Y-102000000D03*
X266490000Y-102000000D03*
X269030000Y-102000000D03*
%TD*%
D41*
%TO.C,J22*%
X148916254Y-171456158D03*
D11*
X147646253Y-169256454D03*
X146376255Y-167056748D03*
X145106254Y-164857044D03*
%TD*%
D41*
%TO.C,J14*%
X142109295Y-175386159D03*
D11*
X140839294Y-173186455D03*
X139569296Y-170986749D03*
X138299295Y-168787045D03*
%TD*%
D10*
%TO.C,REF\u002A\u002A*%
X129157246Y-142970000D03*
%TD*%
D31*
%TO.C,J12*%
X138251708Y-131248488D03*
D11*
X139521709Y-129048784D03*
X140791707Y-126849078D03*
X142061708Y-124649374D03*
%TD*%
D10*
%TO.C,REF\u002A\u002A*%
X190000000Y-165000000D03*
%TD*%
D42*
%TO.C,U17*%
X130444041Y-175181347D03*
X132544041Y-178818653D03*
%TD*%
D10*
%TO.C,REF\u002A\u002A3*%
X147887880Y-110929494D03*
%TD*%
D43*
%TO.C,U13*%
X162555000Y-152775000D03*
X163825000Y-152775000D03*
X165095000Y-152775000D03*
X166365000Y-152775000D03*
X167635000Y-152775000D03*
X168905000Y-152775000D03*
X170175000Y-152775000D03*
X171445000Y-152775000D03*
X171445000Y-157725000D03*
X170175000Y-157725000D03*
X168905000Y-157725000D03*
X167635000Y-157725000D03*
X166365000Y-157725000D03*
X165095000Y-157725000D03*
X163825000Y-157725000D03*
X162555000Y-157725000D03*
%TD*%
D44*
%TO.C,C1*%
X246915000Y-141480000D03*
X244840000Y-141480000D03*
%TD*%
D38*
%TO.C,U8*%
X169363271Y-169100000D03*
X171903271Y-169100000D03*
X176983271Y-169100000D03*
X174443271Y-169100000D03*
X179523271Y-169100000D03*
%TD*%
%TO.C,U9*%
X180063271Y-131100000D03*
X177523271Y-131100000D03*
X172443271Y-131100000D03*
X174983271Y-131100000D03*
X169903271Y-131100000D03*
%TD*%
D45*
%TO.C,JP2*%
X199430000Y-144530000D03*
D46*
X200730000Y-144530000D03*
%TD*%
D45*
%TO.C,JP4*%
X199430000Y-151630000D03*
D46*
X200730000Y-151630000D03*
%TD*%
D47*
%TO.C,R6*%
X246840000Y-181980000D03*
X244840000Y-181980000D03*
%TD*%
%TO.C,R4*%
X246840000Y-174980000D03*
X244840000Y-174980000D03*
%TD*%
D44*
%TO.C,C4*%
X246990000Y-151980000D03*
X244915000Y-151980000D03*
%TD*%
D45*
%TO.C,JP3*%
X199430000Y-148080000D03*
D46*
X200730000Y-148080000D03*
%TD*%
D43*
%TO.C,U22*%
X162385000Y-141775000D03*
X163655000Y-141775000D03*
X164925000Y-141775000D03*
X166195000Y-141775000D03*
X167465000Y-141775000D03*
X168735000Y-141775000D03*
X170005000Y-141775000D03*
X171275000Y-141775000D03*
X171275000Y-146725000D03*
X170005000Y-146725000D03*
X168735000Y-146725000D03*
X167465000Y-146725000D03*
X166195000Y-146725000D03*
X164925000Y-146725000D03*
X163655000Y-146725000D03*
X162385000Y-146725000D03*
%TD*%
D44*
%TO.C,C5*%
X246990000Y-155480000D03*
X244915000Y-155480000D03*
%TD*%
D12*
%TO.C,J25*%
X189750000Y-123000000D03*
D11*
X192290000Y-123000000D03*
X194830000Y-123000000D03*
X197370000Y-123000000D03*
%TD*%
D48*
%TO.C,U4*%
X245840000Y-135180000D03*
D49*
X248702500Y-132905000D03*
X248702500Y-133555000D03*
X248702500Y-134205000D03*
X248702500Y-134855000D03*
X248702500Y-135505000D03*
X248702500Y-136155000D03*
X248702500Y-136805000D03*
X248702500Y-137455000D03*
X242977500Y-137455000D03*
X242977500Y-136805000D03*
X242977500Y-136155000D03*
X242977500Y-135505000D03*
X242977500Y-134855000D03*
X242977500Y-134205000D03*
X242977500Y-133555000D03*
X242977500Y-132905000D03*
%TD*%
D45*
%TO.C,JP5*%
X199430000Y-155180000D03*
D46*
X200730000Y-155180000D03*
%TD*%
D47*
%TO.C,R7*%
X246840000Y-185480000D03*
X244840000Y-185480000D03*
%TD*%
%TO.C,R2*%
X246840000Y-167980000D03*
X244840000Y-167980000D03*
%TD*%
D44*
%TO.C,C2*%
X246915000Y-144980000D03*
X244840000Y-144980000D03*
%TD*%
D47*
%TO.C,R5*%
X246840000Y-178480000D03*
X244840000Y-178480000D03*
%TD*%
D44*
%TO.C,C6*%
X246990000Y-158980000D03*
X244915000Y-158980000D03*
%TD*%
D12*
%TO.C,J26*%
X197250000Y-177000000D03*
D11*
X194710000Y-177000000D03*
X192170000Y-177000000D03*
X189630000Y-177000000D03*
%TD*%
D44*
%TO.C,C3*%
X246990000Y-148480000D03*
X244915000Y-148480000D03*
%TD*%
D50*
%TO.C,U3*%
X242998000Y-121412800D03*
X242998000Y-120777800D03*
X242998000Y-120117400D03*
X242998000Y-119482400D03*
X242998000Y-118822000D03*
X242998000Y-118161600D03*
X242998000Y-117526600D03*
X242998000Y-116866200D03*
X242998000Y-116231200D03*
X242998000Y-115570800D03*
X242998000Y-114910400D03*
X242998000Y-114275400D03*
X242998000Y-113615000D03*
X242998000Y-112980000D03*
X248840000Y-112980000D03*
X248840000Y-113615000D03*
X248840000Y-114275400D03*
X248840000Y-114910400D03*
X248840000Y-115570800D03*
X248840000Y-116231200D03*
X248840000Y-116866200D03*
X248840000Y-117526600D03*
X248840000Y-118161600D03*
X248840000Y-118822000D03*
X248840000Y-119482400D03*
X248840000Y-120117400D03*
X248840000Y-120777800D03*
X248840000Y-121412800D03*
%TD*%
D47*
%TO.C,R3*%
X246840000Y-171480000D03*
X244840000Y-171480000D03*
%TD*%
%TO.C,R1*%
X246840000Y-164480000D03*
X244840000Y-164480000D03*
%TD*%
M02*
