M48
; DRILL file {KiCad 9.0.6} date 2025-11-26T15:01:53+0100
; FORMAT={-:-/ absolute / metric / decimal}
; #@! TF.CreationDate,2025-11-26T15:01:53+01:00
; #@! TF.GenerationSoftware,Kicad,Pcbnew,9.0.6
; #@! TF.FileFunction,NonPlated,1,2,NPTH
FMAT,2
METRIC
; #@! TA.AperFunction,NonPlated,NPTH,ComponentDrill
T1C2.300
; #@! TA.AperFunction,NonPlated,NPTH,ComponentDrill
T2C3.200
%
G90
G05
T1
X235.29Y-152.79
X255.65Y-191.57
T2
X129.157Y-142.97
X129.157Y-156.97
X132.327Y-131.511
X132.374Y-168.524
X139.327Y-119.387
X139.374Y-180.649
X147.789Y-189.12
X147.888Y-110.929
X159.913Y-196.12
X160.012Y-103.929
X185.0Y-101.14
X185.0Y-198.86
X190.0Y-135.0
X190.0Y-165.0
X199.0Y-101.14
X199.0Y-198.86
X227.0Y-115.0
X227.0Y-135.0
X227.0Y-164.98
X227.0Y-184.98
X265.0Y-114.98
X265.0Y-134.98
X265.0Y-164.98
X265.0Y-184.98
X276.65Y-143.016
X276.65Y-157.016
M30
